<svg width="160" height="33" viewBox="0 0 160 33" fill="none" xmlns="http://www.w3.org/2000/svg">
<g clip-path="url(#clip0_53_598)">
<path d="M140.707 16.1721C139.879 15.6097 138.977 15.2024 138.121 14.6982C137.563 14.3782 136.967 14.0873 136.484 13.6703C135.665 12.9721 135.832 11.5855 136.688 10.9842C137.925 10.1309 139.963 10.6061 140.186 12.3515C140.186 12.3903 140.223 12.4194 140.26 12.4194H142.121C142.167 12.4194 142.205 12.3806 142.186 12.3224C142.17 11.7734 142.04 11.2345 141.805 10.7425C141.571 10.2505 141.238 9.81701 140.828 9.47152C140.071 8.86288 139.142 8.53219 138.186 8.53091C133.274 8.53091 132.819 13.9515 135.47 15.6582C135.777 15.8521 138.372 17.2097 139.284 17.8012C140.214 18.3927 140.493 19.4788 140.102 20.3224C139.73 21.1079 138.8 21.6509 137.851 21.583C136.828 21.5249 136.028 20.943 135.749 20.0412C135.702 19.8764 135.674 19.5564 135.674 19.4303C135.672 19.4105 135.664 19.3919 135.65 19.3778C135.637 19.3637 135.619 19.3548 135.6 19.3527H133.581C133.553 19.3527 133.516 19.3915 133.516 19.4303C133.516 20.943 133.879 21.7867 134.865 22.5527C135.795 23.28 136.819 23.5903 137.86 23.5903C140.623 23.5903 142.046 21.9612 142.326 20.2836C142.586 18.6352 142.121 17.1515 140.707 16.1721ZM53.079 8.81213H51.1999C51.186 8.8139 51.1728 8.81926 51.1614 8.82773C51.1501 8.8362 51.1409 8.84751 51.1348 8.86061L49.479 14.543C49.479 14.5636 49.4711 14.5833 49.4572 14.5979C49.4432 14.6124 49.4243 14.6206 49.4046 14.6206C49.3848 14.6206 49.3659 14.6124 49.3519 14.5979C49.338 14.5833 49.3301 14.5636 49.3301 14.543L47.6743 8.86061C47.665 8.82182 47.6371 8.81213 47.5999 8.81213H44.5208C44.4836 8.81213 44.4464 8.85091 44.4464 8.88V23.3867C44.4464 23.4255 44.4836 23.4642 44.5208 23.4642H46.5394C46.5766 23.4642 46.6139 23.4255 46.6139 23.3867V12.3515C46.6139 12.2642 46.7348 12.2546 46.7534 12.3321L48.4278 18.0533L48.5487 18.4412C48.5487 18.4897 48.5766 18.4994 48.6139 18.4994H50.1673C50.2046 18.4994 50.2232 18.4703 50.2325 18.4509L50.3534 18.0436L52.0278 12.3224C52.0464 12.2449 52.1673 12.2642 52.1673 12.3515V23.377C52.1673 23.4158 52.2046 23.4546 52.2418 23.4546H54.2604C54.2976 23.4546 54.3348 23.4158 54.3348 23.377V8.88C54.3348 8.85091 54.2976 8.81213 54.2604 8.81213H53.079ZM109.805 8.81213C109.789 8.81224 109.774 8.81683 109.761 8.82539C109.748 8.83395 109.737 8.84614 109.73 8.86061L108.074 14.543C108.074 14.5636 108.066 14.5833 108.053 14.5979C108.039 14.6124 108.02 14.6206 108 14.6206C107.98 14.6206 107.961 14.6124 107.947 14.5979C107.933 14.5833 107.925 14.5636 107.925 14.543L106.27 8.86061C106.27 8.82182 106.242 8.81213 106.205 8.81213H103.135C103.098 8.81213 103.06 8.85091 103.06 8.88V23.3867C103.06 23.4255 103.098 23.4642 103.135 23.4642H105.153C105.181 23.4642 105.219 23.4255 105.219 23.3867V12.3515C105.219 12.2642 105.339 12.2546 105.367 12.3321L107.042 18.0533L107.153 18.4412C107.172 18.4897 107.191 18.4994 107.228 18.4994H108.772C108.787 18.4983 108.802 18.4933 108.815 18.4849C108.828 18.4764 108.839 18.4648 108.846 18.4509L108.967 18.0436L110.642 12.3224C110.66 12.2449 110.781 12.2642 110.781 12.3515V23.377C110.781 23.4158 110.819 23.4546 110.856 23.4546H112.874C112.912 23.4546 112.949 23.4158 112.949 23.377V8.88C112.949 8.85091 112.912 8.81213 112.874 8.81213H109.805ZM83.7673 8.81213H74.2325C74.2046 8.81213 74.1674 8.85091 74.1674 8.88V10.703C74.1674 10.7418 74.2046 10.7806 74.2325 10.7806H77.9255V23.3867C77.9255 23.4352 77.9627 23.4739 77.9906 23.4739H80.0092C80.0464 23.4739 80.0836 23.4352 80.0836 23.3964V10.7709H83.7673C83.8046 10.7709 83.8418 10.7321 83.8418 10.6933V8.88C83.8418 8.85091 83.8232 8.81213 83.7673 8.81213ZM95.6743 23.4642H97.5162C97.5627 23.4642 97.5999 23.4061 97.5813 23.3673L93.786 8.81213C93.786 8.77334 93.758 8.75394 93.7208 8.75394H91.0697C91.0548 8.75662 91.0409 8.76344 91.0294 8.77368C91.018 8.78393 91.0094 8.79721 91.0046 8.81213L87.2092 23.3576C87.1906 23.4061 87.2278 23.4546 87.2743 23.4546H89.1162C89.1534 23.4546 89.172 23.4352 89.1906 23.4061L90.2883 19.1782C90.2976 19.1394 90.3255 19.1297 90.3627 19.1297H94.4185C94.4557 19.1297 94.4836 19.1491 94.4929 19.1782L95.5906 23.4061C95.6092 23.4352 95.6464 23.4642 95.665 23.4642H95.6743ZM90.8557 17.0546L92.3255 11.3818C92.3255 11.3612 92.3333 11.3415 92.3473 11.327C92.3612 11.3124 92.3802 11.3042 92.3999 11.3042C92.4196 11.3042 92.4386 11.3124 92.4525 11.327C92.4665 11.3415 92.4743 11.3612 92.4743 11.3818L93.9441 17.0546C93.9627 17.103 93.9255 17.1515 93.879 17.1515H90.9301C90.8743 17.1515 90.8371 17.103 90.8557 17.0546ZM126.995 23.4642H128.837C128.884 23.4642 128.921 23.4061 128.912 23.3673L125.116 8.80243C125.098 8.76364 125.079 8.74425 125.042 8.74425H122.409C122.393 8.74519 122.377 8.75122 122.364 8.76157C122.35 8.77193 122.34 8.78615 122.335 8.80243L118.539 23.3479C118.53 23.3964 118.567 23.4449 118.614 23.4449H120.446C120.484 23.4449 120.512 23.4255 120.521 23.3964L121.619 19.1685C121.637 19.1297 121.656 19.12 121.693 19.12H125.758C125.786 19.12 125.814 19.1394 125.823 19.1685L126.93 23.3964C126.93 23.4255 126.967 23.4546 126.995 23.4546V23.4642ZM122.177 17.0546L123.656 11.3818C123.661 11.367 123.671 11.3542 123.683 11.3451C123.695 11.3361 123.71 11.3312 123.725 11.3312C123.741 11.3312 123.756 11.3361 123.768 11.3451C123.78 11.3542 123.79 11.367 123.795 11.3818L125.274 17.0546C125.274 17.103 125.246 17.1515 125.2 17.1515H122.251C122.205 17.1515 122.158 17.103 122.177 17.0546ZM62.5301 21.3115V16.8121C62.5301 16.7733 62.558 16.7346 62.5953 16.7346H67.972C68.0092 16.7346 68.0464 16.6958 68.0464 16.6667V14.8533C68.0444 14.8335 68.0359 14.815 68.0224 14.8008C68.0088 14.7867 67.991 14.7779 67.972 14.7758H62.6046C62.5673 14.7758 62.5394 14.737 62.5394 14.6982V10.8582C62.5394 10.8194 62.5673 10.7806 62.6046 10.7806H68.7255C68.7627 10.7806 68.7999 10.7418 68.7999 10.703V8.8994C68.7979 8.87955 68.7894 8.86101 68.7759 8.8469C68.7623 8.83278 68.7445 8.82393 68.7255 8.82182H60.4464C60.4274 8.82393 60.4096 8.83278 60.396 8.8469C60.3825 8.86101 60.374 8.87955 60.372 8.8994V23.3867C60.372 23.4255 60.4092 23.4642 60.4464 23.4642H68.9767C69.0139 23.4642 69.0511 23.4255 69.0511 23.3867V21.4667C69.049 21.4468 69.0406 21.4283 69.027 21.4142C69.0135 21.4001 68.9957 21.3912 68.9767 21.3891H62.5953C62.558 21.3794 62.5394 21.3503 62.5394 21.3018L62.5301 21.3115ZM159.144 23.3382L152.167 15.8327C152.157 15.819 152.151 15.8019 152.151 15.7842C152.151 15.7666 152.157 15.7495 152.167 15.7358L158.446 8.94788C158.462 8.94017 158.475 8.92613 158.481 8.90885C158.487 8.89158 158.486 8.87248 158.479 8.85576C158.472 8.83905 158.458 8.82608 158.442 8.81971C158.425 8.81335 158.407 8.81411 158.391 8.82182H155.823C155.795 8.82182 155.786 8.83152 155.777 8.85091L150.446 14.6012C150.436 14.61 150.424 14.6157 150.411 14.6179C150.398 14.6201 150.385 14.6187 150.372 14.6137C150.36 14.6088 150.349 14.6006 150.341 14.5898C150.333 14.5791 150.327 14.5663 150.326 14.5527V8.8994C150.323 8.87955 150.315 8.86101 150.301 8.8469C150.288 8.83278 150.27 8.82393 150.251 8.82182H148.232C148.213 8.82393 148.196 8.83278 148.182 8.8469C148.169 8.86101 148.16 8.87955 148.158 8.8994V23.3964C148.158 23.4352 148.195 23.4739 148.232 23.4739H150.251C150.288 23.4739 150.326 23.4352 150.326 23.3964V17.0158C150.326 16.9479 150.409 16.9188 150.446 16.9673L156.493 23.4449C156.503 23.4577 156.516 23.4677 156.53 23.4739H159.107C159.153 23.4642 159.2 23.377 159.144 23.3382Z" fill="#F5841F"/>
<path d="M30.6604 1.00607L18.4371 10.4315L20.7162 4.87516L30.6604 1.00607Z" fill="#E17726" stroke="#E17726" stroke-width="0.25" stroke-linecap="round" stroke-linejoin="round"/>
<path d="M2.4743 1.00607L14.5859 10.5091L12.4185 4.88486L2.4743 1.00607ZM26.2603 22.8533L23.0045 28.0315L29.972 30.0291L31.9627 22.9697L26.2603 22.8533ZM1.18127 22.9697L3.16267 30.0291L10.1115 28.0315L6.8743 22.8533L1.18127 22.9697Z" fill="#E27625" stroke="#E27625" stroke-width="0.25" stroke-linecap="round" stroke-linejoin="round"/>
<path d="M9.73945 14.1067L7.80457 17.1515L14.6883 17.4812L14.465 9.75273L9.73945 14.1164V14.1067ZM23.3953 14.1164L18.5953 9.65576L18.4371 17.4812L25.3208 17.1515L23.3953 14.1164ZM10.1115 28.0315L14.2883 25.937L10.6976 23.0279L10.1115 28.0315ZM18.8557 25.9273L23.0046 28.0315L22.4464 23.0182L18.8557 25.9273Z" fill="#E27625" stroke="#E27625" stroke-width="0.25" stroke-linecap="round" stroke-linejoin="round"/>
<path d="M23.0045 28.0315L18.8556 25.937L19.1905 28.7491L19.1533 29.9418L23.0045 28.0315ZM10.1115 28.0315L13.9812 29.9418L13.9533 28.7491L14.2882 25.937L10.1115 28.0315Z" fill="#D5BFB2" stroke="#D5BFB2" stroke-width="0.25" stroke-linecap="round" stroke-linejoin="round"/>
<path d="M14.0464 21.1564L10.6045 20.1091L13.0417 18.9455L14.0557 21.1564H14.0464ZM19.0789 21.1564L20.1022 18.9358L22.5487 20.0994L19.0789 21.1661V21.1564Z" fill="#233447" stroke="#233447" stroke-width="0.25" stroke-linecap="round" stroke-linejoin="round"/>
<path d="M10.1115 28.0315L10.7161 22.8533L6.87427 22.9697L10.1115 28.0315ZM22.4185 22.8533L23.0045 28.0315L26.2603 22.9697L22.4185 22.8533ZM25.3301 17.1515L18.4464 17.4812L19.0789 21.1661L20.1022 18.9358L22.5487 20.0994L25.3301 17.1515ZM10.6045 20.1091L13.0417 18.9455L14.0557 21.1564L14.6975 17.4715L7.8138 17.1515L10.6045 20.1091Z" fill="#CC6228" stroke="#CC6228" stroke-width="0.25" stroke-linecap="round" stroke-linejoin="round"/>
<path d="M7.81384 17.1515L10.6976 23.0182L10.6045 20.1091L7.81384 17.1515ZM22.5487 20.1091L22.4371 23.0182L25.3208 17.1515L22.5487 20.1091ZM14.6976 17.4812L14.0464 21.1661L14.865 25.5103L15.0511 19.7794L14.6976 17.4812ZM18.4371 17.4812L18.1022 19.7697L18.2697 25.5103L19.079 21.1564L18.4371 17.4715V17.4812Z" fill="#E27525" stroke="#E27525" stroke-width="0.25" stroke-linecap="round" stroke-linejoin="round"/>
<path d="M19.0789 21.1564L18.2696 25.5103L18.8557 25.937L22.4371 23.0279L22.5487 20.1091L19.0789 21.1564ZM10.6045 20.1091L10.6975 23.0182L14.2882 25.9273L14.865 25.5103L14.0557 21.1564L10.5952 20.1091H10.6045Z" fill="#F5841F" stroke="#F5841F" stroke-width="0.25" stroke-linecap="round" stroke-linejoin="round"/>
<path d="M19.1626 29.9418L19.1905 28.7491L18.8742 28.4776H14.2603L13.9533 28.7491L13.9812 29.9418L10.1115 28.0315L11.4696 29.1952L14.2138 31.1636H18.9115L21.6649 29.1855L23.0045 28.0315L19.1533 29.9418H19.1626Z" fill="#C0AC9D" stroke="#C0AC9D" stroke-width="0.25" stroke-linecap="round" stroke-linejoin="round"/>
<path d="M18.8557 25.9273L18.2696 25.5103H14.865L14.2883 25.937L13.9534 28.7491L14.2603 28.4776H18.8743L19.1906 28.7491L18.8557 25.937V25.9273Z" fill="#161616" stroke="#161616" stroke-width="0.25" stroke-linecap="round" stroke-linejoin="round"/>
<path d="M31.1812 11.0424L32.2045 5.85456L30.6603 1.00607L18.8463 10.1212L23.3952 14.1067L29.8138 16.0558L31.2277 14.3394L30.6138 13.874L31.5905 12.943L30.8463 12.3418L31.8231 11.5661L31.1719 11.0424H31.1812ZM0.930054 5.84486L1.97191 11.0424L1.30215 11.5564L2.2975 12.3321L1.55331 12.943L2.52075 13.874L1.9068 14.3394L3.32075 16.0558L9.73936 14.1164L14.2882 10.1115L2.47424 1.00607L0.930054 5.84486Z" fill="#763E1A" stroke="#763E1A" stroke-width="0.25" stroke-linecap="round" stroke-linejoin="round"/>
<path d="M29.8138 16.0558L23.3952 14.1164L25.3301 17.1515L22.4464 23.0182L26.2603 22.9697H31.9627L29.8138 16.0558ZM9.73941 14.1067L3.32081 16.0558L1.18127 22.9697H6.8836L10.6976 23.0182L7.81383 17.1515L9.74872 14.1067H9.73941ZM18.4371 17.4812L18.8557 10.1115L20.7162 4.87515H12.4185L14.2789 10.1115L14.6976 17.4812L14.8557 19.7891V25.5103H18.2696L18.2882 19.7891L18.4371 17.4812Z" fill="#F5841F" stroke="#F5841F" stroke-width="0.25" stroke-linecap="round" stroke-linejoin="round"/>
</g>
<defs>
<clipPath id="clip0_53_598">
<rect width="160" height="32" fill="white" transform="translate(-0.00012207 0.036377)"/>
</clipPath>
</defs>
</svg>
